<svg data-v-423bf9ae="" xmlns="http://www.w3.org/2000/svg" viewBox="0 0 578 90" class="iconLeft"><!----><!----><!----><g data-v-423bf9ae="" id="bb083c70-d4a4-441b-8051-508657bd8276" fill="black" transform="matrix(5.988024248455585,0,0,5.988024248455585,108.98203405055915,-6.796410561477124)"><path d="M1.16 13.50L2.37 10.40L6.44 10.40L7.64 13.50L8.62 13.50L4.87 3.82L3.96 3.82L0.17 13.50ZM2.63 9.58C3.79 6.54 4.13 5.61 4.40 4.91C4.65 5.64 4.98 6.55 6.16 9.58ZM15.89 11.17L15.05 11.02C14.91 12.03 14.06 12.87 12.75 12.87C11.61 12.87 10.16 12.15 10.16 9.94C10.16 8.05 11.37 7.13 12.74 7.13C14.34 7.13 14.87 8.22 14.99 9.06L15.85 8.90C15.68 7.39 14.57 6.33 12.75 6.33C10.82 6.33 9.28 7.67 9.28 9.97C9.28 12.29 10.68 13.66 12.70 13.66C14.50 13.66 15.65 12.60 15.89 11.17ZM23.18 13.50L23.18 6.51L22.34 6.51L22.34 10.23C22.34 10.89 22.25 11.41 21.97 11.86C21.69 12.31 21.03 12.85 20.09 12.85C19.36 12.85 18.91 12.63 18.62 12.32C18.34 12.01 18.16 11.47 18.16 10.54L18.16 6.51L17.29 6.51L17.29 10.65C17.29 11.69 17.47 12.36 17.78 12.78C18.17 13.33 18.86 13.66 19.80 13.66C21.06 13.66 21.99 13.02 22.34 12.14L22.34 13.50ZM26.28 13.50L26.28 9.95C26.28 9.14 26.36 8.60 26.61 8.15C26.88 7.67 27.43 7.13 28.27 7.13C28.50 7.13 28.76 7.17 28.97 7.22L29.13 6.43C28.90 6.36 28.59 6.30 28.34 6.30C27.17 6.30 26.46 7.11 26.28 7.94L26.28 6.51L25.44 6.51L25.44 13.50ZM36.19 13.48L36.11 12.78C35.98 12.81 35.84 12.82 35.67 12.82C35.45 12.82 35.28 12.74 35.17 12.53C35.07 12.36 35.06 12.05 35.06 11.69L35.06 9.30C35.06 8.72 35.06 8.22 34.92 7.76C34.64 6.78 33.84 6.33 32.49 6.33C30.53 6.33 29.55 7.22 29.55 8.83L30.37 8.88C30.42 7.29 31.47 7.13 32.44 7.13C33.50 7.13 33.88 7.60 34.06 7.98C34.16 8.20 34.23 8.71 34.23 9.20L34.23 9.49L33.40 9.49C31.72 9.49 30.77 9.69 30.18 10.01C29.60 10.33 29.27 10.88 29.27 11.62C29.27 12.84 30.16 13.66 31.77 13.66C32.79 13.66 33.84 13.27 34.27 12.36C34.33 13.06 34.57 13.58 35.48 13.58C35.69 13.58 35.98 13.55 36.19 13.48ZM34.23 10.18L34.23 10.89C34.23 11.17 34.16 11.61 33.99 11.91C33.74 12.35 33.05 12.92 31.89 12.92C31.01 12.92 30.11 12.57 30.11 11.56C30.11 11.00 30.45 10.63 30.94 10.46C31.46 10.28 32.28 10.18 33.42 10.18ZM36.67 12.43C37.31 13.17 38.43 13.66 39.68 13.66C41.40 13.66 42.43 12.91 42.43 11.62C42.43 10.47 41.78 9.95 40.36 9.66L39.45 9.48C38.22 9.24 37.97 8.89 37.97 8.25C37.97 7.71 38.39 7.13 39.66 7.13C40.49 7.13 41.16 7.38 41.73 7.88L42.27 7.20C41.61 6.58 40.73 6.33 39.73 6.33C37.94 6.33 37.09 7.29 37.09 8.32C37.09 9.41 37.70 9.98 38.96 10.23L39.83 10.42C41.20 10.70 41.58 11.06 41.58 11.69C41.58 12.32 41.10 12.88 39.76 12.88C38.81 12.88 37.88 12.53 37.25 11.77ZM50.51 13.48L50.43 12.78C50.30 12.81 50.16 12.82 49.99 12.82C49.77 12.82 49.60 12.74 49.49 12.53C49.39 12.36 49.38 12.05 49.38 11.69L49.38 9.30C49.38 8.72 49.38 8.22 49.24 7.76C48.96 6.78 48.16 6.33 46.82 6.33C44.86 6.33 43.88 7.22 43.88 8.83L44.69 8.88C44.74 7.29 45.79 7.13 46.76 7.13C47.82 7.13 48.20 7.60 48.38 7.98C48.48 8.20 48.55 8.71 48.55 9.20L48.55 9.49L47.73 9.49C46.05 9.49 45.09 9.69 44.51 10.01C43.92 10.33 43.60 10.88 43.60 11.62C43.60 12.84 44.48 13.66 46.09 13.66C47.11 13.66 48.16 13.27 48.59 12.36C48.65 13.06 48.89 13.58 49.80 13.58C50.01 13.58 50.30 13.55 50.51 13.48ZM48.55 10.18L48.55 10.89C48.55 11.17 48.48 11.61 48.31 11.91C48.06 12.35 47.38 12.92 46.21 12.92C45.33 12.92 44.44 12.57 44.44 11.56C44.44 11.00 44.77 10.63 45.26 10.46C45.78 10.28 46.61 10.18 47.74 10.18ZM53.68 11.96C54.52 12.98 55.89 13.66 57.53 13.66C59.77 13.66 61.10 12.70 61.10 10.96C61.10 9.60 60.47 8.78 58.51 8.34L57.01 8.01C55.55 7.67 55.19 7.11 55.19 6.26C55.19 5.46 55.65 4.47 57.54 4.47C58.73 4.47 59.71 4.94 60.30 5.61L60.91 4.94C59.98 3.95 58.87 3.64 57.61 3.64C55.41 3.64 54.24 4.68 54.24 6.34C54.24 7.57 54.87 8.48 56.43 8.83L57.89 9.17C59.78 9.59 60.13 10.21 60.13 11.06C60.13 11.87 59.64 12.82 57.60 12.82C56.22 12.82 55.03 12.22 54.35 11.33ZM69.20 10.01C69.20 7.70 67.70 6.33 65.83 6.33C63.90 6.33 62.27 7.71 62.27 9.98C62.27 12.26 63.67 13.66 65.80 13.66C67.66 13.66 69.20 12.26 69.20 10.01ZM68.33 10.00C68.33 11.87 67.12 12.87 65.80 12.87C64.34 12.87 63.15 11.87 63.15 9.95C63.15 8.05 64.43 7.13 65.81 7.13C67.13 7.13 68.33 8.06 68.33 10.00ZM72.09 13.50L72.09 7.24L73.72 7.24L73.72 6.51L72.09 6.51L72.09 6.01C72.09 5.47 72.17 5.11 72.34 4.89C72.55 4.62 72.88 4.49 73.32 4.49C73.57 4.49 73.84 4.55 74.02 4.62L74.20 3.82C74.02 3.77 73.61 3.70 73.21 3.70C72.66 3.70 72.11 3.86 71.74 4.30C71.46 4.61 71.23 5.14 71.23 6.01L71.23 6.51L70.15 6.51L70.15 7.24L71.23 7.24L71.23 13.50ZM78.25 13.44L78.06 12.73C77.87 12.81 77.52 12.89 77.17 12.89C76.65 12.89 76.38 12.67 76.27 12.32C76.20 12.08 76.19 11.70 76.19 11.20L76.19 7.24L77.97 7.24L77.97 6.51L76.19 6.51L76.19 4.62L75.33 4.62L75.33 6.51L74.24 6.51L74.24 7.24L75.33 7.24L75.33 11.27C75.33 11.84 75.35 12.26 75.46 12.68C75.66 13.38 76.27 13.66 76.97 13.66C77.49 13.66 77.94 13.57 78.25 13.44Z"></path></g><!----><g data-v-423bf9ae="" id="18f3fd93-d650-4d91-8b17-3b951e91b709" transform="matrix(2.8125,0,0,2.8125,0,0)" stroke="none" fill="black"><path d="M0 32h32V0H0v32zm19.377-19.492l6.936-6.936v20.855h-6.936V12.508zM5.688 5.572l6.936 6.936v13.919H5.688V5.572z"></path></g><!----></svg>